<svg width="100" height="100" viewBox="0 0 100 100" fill="none" xmlns="http://www.w3.org/2000/svg">
<g clip-path="url(#clip0_2268_761)">
<path d="M80.0391 72.1348C79.2305 72.1348 78.5742 71.4785 78.5742 70.6699V56.8359C78.5742 56.0273 79.2305 55.3711 80.0391 55.3711C80.8477 55.3711 81.5039 56.0273 81.5039 56.8359V70.6699C81.5039 71.4785 80.8477 72.1348 80.0391 72.1348Z" fill="#262626"/>
<path d="M80.0371 51.4648C79.2285 51.4648 78.5723 50.8086 78.5723 50V7.32422C78.5723 4.90039 76.6016 2.92969 74.1777 2.92969H7.32422C4.90039 2.92969 2.92969 4.90039 2.92969 7.32422V22.2051C2.92969 23.0137 2.27344 23.6699 1.46484 23.6699C0.65625 23.6699 0 23.0137 0 22.2051V7.32422C0 3.28516 3.28516 0 7.32422 0H74.1777C78.2168 0 81.5019 3.28516 81.5019 7.32422V50C81.5019 50.8086 80.8457 51.4648 80.0371 51.4648Z" fill="#262626"/>
<path d="M74.1777 100H7.32422C3.28516 100 0 96.7148 0 92.6758V29.041C0 28.2324 0.65625 27.5762 1.46484 27.5762C2.27344 27.5762 2.92969 28.2324 2.92969 29.041V92.6758C2.92969 95.0996 4.90039 97.0703 7.32422 97.0703H74.1777C74.9863 97.0703 75.6426 97.7266 75.6426 98.5352C75.6426 99.3438 74.9863 100 74.1777 100Z" fill="#262626"/>
<path d="M67.4785 56.1328H29.7363C28.9277 56.1328 28.2715 55.4766 28.2715 54.668C28.2715 53.8594 28.9277 53.2031 29.7363 53.2031H67.4785C68.2871 53.2031 68.9434 53.8594 68.9434 54.668C68.9434 55.4766 68.2871 56.1328 67.4785 56.1328Z" fill="#262626"/>
<path d="M67.4785 66.668H29.7363C28.9277 66.668 28.2715 66.0117 28.2715 65.2031C28.2715 64.3945 28.9277 63.7383 29.7363 63.7383H67.4785C68.2871 63.7383 68.9434 64.3945 68.9434 65.2031C68.9434 66.0117 68.2871 66.668 67.4785 66.668Z" fill="#262626"/>
<path d="M55.3926 77.2012H29.7363C28.9277 77.2012 28.2715 76.5449 28.2715 75.7363C28.2715 74.9277 28.9277 74.2715 29.7363 74.2715H55.3926C56.2012 74.2715 56.8574 74.9277 56.8574 75.7363C56.8574 76.5449 56.2012 77.2012 55.3926 77.2012Z" fill="#262626"/>
<path d="M55.3926 87.7363H29.7363C28.9277 87.7363 28.2715 87.0801 28.2715 86.2715C28.2715 85.4629 28.9277 84.8066 29.7363 84.8066H55.3926C56.2012 84.8066 56.8574 85.4629 56.8574 86.2715C56.8574 87.0801 56.2012 87.7363 55.3926 87.7363Z" fill="#262626"/>
<path d="M21.4355 56.1328H14.0234C13.2148 56.1328 12.5586 55.4766 12.5586 54.668C12.5586 53.8594 13.2148 53.2031 14.0234 53.2031H21.4355C22.2441 53.2031 22.9004 53.8594 22.9004 54.668C22.9004 55.4766 22.2441 56.1328 21.4355 56.1328Z" fill="#262626"/>
<path d="M67.4785 45.6055H29.7363C28.9277 45.6055 28.2715 44.9492 28.2715 44.1406C28.2715 43.332 28.9277 42.6758 29.7363 42.6758H67.4785C68.2871 42.6758 68.9434 43.332 68.9434 44.1406C68.9434 44.9492 68.2871 45.6055 67.4785 45.6055Z" fill="#262626"/>
<path d="M21.4355 45.6055H14.0234C13.2148 45.6055 12.5586 44.9492 12.5586 44.1406C12.5586 43.332 13.2148 42.6758 14.0234 42.6758H21.4355C22.2441 42.6758 22.9004 43.332 22.9004 44.1406C22.9004 44.9492 22.2441 45.6055 21.4355 45.6055Z" fill="#262626"/>
<path d="M21.4355 66.668H14.0234C13.2148 66.668 12.5586 66.0117 12.5586 65.2031C12.5586 64.3945 13.2148 63.7383 14.0234 63.7383H21.4355C22.2441 63.7383 22.9004 64.3945 22.9004 65.2031C22.9004 66.0117 22.2441 66.668 21.4355 66.668Z" fill="#262626"/>
<path d="M21.4355 77.2012H14.0234C13.2148 77.2012 12.5586 76.5449 12.5586 75.7363C12.5586 74.9277 13.2148 74.2715 14.0234 74.2715H21.4355C22.2441 74.2715 22.9004 74.9277 22.9004 75.7363C22.9004 76.5449 22.2441 77.2012 21.4355 77.2012Z" fill="#262626"/>
<path d="M21.4355 87.7363H14.0234C13.2148 87.7363 12.5586 87.0801 12.5586 86.2715C12.5586 85.4629 13.2148 84.8066 14.0234 84.8066H21.4355C22.2441 84.8066 22.9004 85.4629 22.9004 86.2715C22.9004 87.0801 22.2441 87.7363 21.4355 87.7363Z" fill="#262626"/>
<path d="M75.1953 100C66.7051 100 59.7988 93.0918 59.7988 84.6035C59.7988 76.1152 66.707 69.207 75.1953 69.207C83.6836 69.207 90.5918 76.1152 90.5918 84.6035C90.5918 93.0918 83.6836 100 75.1953 100ZM75.1953 72.1348C68.3203 72.1348 62.7285 77.7285 62.7285 84.6016C62.7285 91.4746 68.3223 97.0684 75.1953 97.0684C82.0684 97.0684 87.6621 91.4746 87.6621 84.6016C87.6621 77.7285 82.0684 72.1348 75.1953 72.1348Z" fill="#262626"/>
<path d="M73.5347 88.3687C73.1597 88.3687 72.7847 88.2261 72.4995 87.939C71.9272 87.3667 71.9272 86.439 72.4995 85.8667L77.6323 80.7339C78.2046 80.1616 79.1323 80.1616 79.7046 80.7339C80.2769 81.3062 80.2769 82.2339 79.7046 82.8062L74.5718 87.939C74.2866 88.2241 73.9116 88.3687 73.5366 88.3687H73.5347Z" fill="#262626"/>
<path d="M73.5366 88.3687C73.1616 88.3687 72.7866 88.2261 72.5015 87.939L70.6929 86.1304C70.1206 85.5581 70.1206 84.6304 70.6929 84.0581C71.2651 83.4858 72.1929 83.4858 72.7651 84.0581L74.5737 85.8667C75.146 86.439 75.146 87.3667 74.5737 87.939C74.2886 88.2241 73.9136 88.3687 73.5386 88.3687H73.5366Z" fill="#262626"/>
<path d="M13.6406 19.6719C13.6406 20.791 12.7285 21.5215 11.6016 21.5215H8.94922V15.2051H11.4219C12.5234 15.2051 13.416 15.918 13.416 17.0098C13.416 17.5332 13.209 17.9473 12.8652 18.2461C13.334 18.543 13.6406 19.0313 13.6406 19.6719ZM10.3926 16.5586V17.6777H11.4219C11.7461 17.6777 11.9727 17.4434 11.9727 17.1191C11.9727 16.7949 11.7559 16.5605 11.4219 16.5605H10.3926V16.5586ZM12.1973 19.5645C12.1973 19.2129 11.9629 18.959 11.6016 18.959H10.3926V20.168H11.6016C11.9629 20.168 12.1973 19.916 12.1973 19.5625V19.5645Z" fill="#262626"/>
<path d="M14.0898 18.3633C14.0898 16.5039 15.5605 15.0781 17.375 15.0781C19.1895 15.0781 20.6602 16.5039 20.6602 18.3633C20.6602 20.2227 19.1895 21.6484 17.375 21.6484C15.5605 21.6484 14.0898 20.2227 14.0898 18.3633ZM19.2148 18.3633C19.2148 17.2344 18.4023 16.4863 17.373 16.4863C16.3437 16.4863 15.5312 17.2344 15.5312 18.3633C15.5312 19.4922 16.3437 20.2402 17.373 20.2402C18.4023 20.2402 19.2148 19.4922 19.2148 18.3633Z" fill="#262626"/>
<path d="M27.0684 18.3633C27.0684 20.1504 25.7422 21.5215 24 21.5215H21.4727V15.2051H24C25.7422 15.2051 27.0684 16.5762 27.0684 18.3633ZM25.6777 18.3633C25.6777 17.2812 24.9922 16.5938 24 16.5938H22.918V20.1309H24C24.9922 20.1309 25.6777 19.4453 25.6777 18.3613V18.3633Z" fill="#262626"/>
<path d="M30.4531 19.0957V21.5234H29.0098V19.0957L26.8887 15.207H28.5313L29.7324 17.6445L30.9336 15.207H32.5762L30.4551 19.0957H30.4531Z" fill="#262626"/>
<path d="M32.6602 18.1738H36.0898V19.4727H32.6602V18.1738Z" fill="#262626"/>
<path d="M36.7656 20.0879L38.0117 19.3652C38.2383 19.8887 38.625 20.2402 39.3379 20.2402C40.0508 20.2402 40.1953 19.9688 40.1953 19.7266C40.1953 19.3379 39.834 19.1855 38.8867 18.9238C37.9492 18.6621 37.0273 18.2109 37.0273 17.002C37.0273 15.793 38.0566 15.0801 39.1484 15.0801C40.2402 15.0801 40.998 15.5762 41.459 16.5059L40.2402 17.2188C40.0234 16.7676 39.7266 16.4883 39.1484 16.4883C38.6973 16.4883 38.4707 16.7148 38.4707 16.9668C38.4707 17.2559 38.625 17.4551 39.6074 17.752C40.5645 18.041 41.6387 18.375 41.6387 19.7109C41.6387 20.9297 40.6641 21.6504 39.293 21.6504C37.9219 21.6504 37.1172 21.0195 36.7656 20.0898V20.0879Z" fill="#262626"/>
<path d="M46.9199 17.3711C46.9199 18.5723 45.9551 19.5371 44.709 19.5371H43.7617V21.5234H42.3184V15.207H44.709C45.9551 15.207 46.9199 16.1719 46.9199 17.373V17.3711ZM45.4766 17.3711C45.4766 16.9102 45.1523 16.5586 44.709 16.5586H43.7617V18.1836H44.709C45.1504 18.1836 45.4766 17.832 45.4766 17.3711Z" fill="#262626"/>
<path d="M51.6113 20.1328V21.5234H47.6406V15.207H51.5664V16.5977H49.084V17.6445H51.3398V19.0156H49.084V20.1348H51.6113V20.1328Z" fill="#262626"/>
<path d="M52.1035 18.3633C52.1035 16.5039 53.4844 15.0781 55.3887 15.0781C56.5352 15.0781 57.5449 15.6465 58.0957 16.5391L56.8496 17.2617C56.5703 16.7734 56.0273 16.4863 55.3867 16.4863C54.2676 16.4863 53.5449 17.2344 53.5449 18.3633C53.5449 19.4922 54.2676 20.2402 55.3867 20.2402C56.0273 20.2402 56.5781 19.9512 56.8496 19.4648L58.0957 20.1875C57.5547 21.0801 56.543 21.6484 55.3887 21.6484C53.4844 21.6484 52.1035 20.2227 52.1035 18.3633Z" fill="#262626"/>
<path d="M60.2168 15.2051V21.5215H58.7734V15.2051H60.2168Z" fill="#262626"/>
<path d="M62.7461 16.5957V17.8145H65.0918V19.2051H62.7461V21.5234H61.3027V15.207H65.1387V16.5977H62.748L62.7461 16.5957Z" fill="#262626"/>
<path d="M67.4336 15.2051V21.5215H65.9902V15.2051H67.4336Z" fill="#262626"/>
<path d="M68.2461 18.3633C68.2461 16.5039 69.627 15.0781 71.5313 15.0781C72.6777 15.0781 73.6875 15.6465 74.2383 16.5391L72.9922 17.2617C72.7129 16.7734 72.1699 16.4863 71.5293 16.4863C70.4102 16.4863 69.6875 17.2344 69.6875 18.3633C69.6875 19.4922 70.4102 20.2402 71.5293 20.2402C72.1699 20.2402 72.7207 19.9512 72.9922 19.4648L74.2383 20.1875C73.6973 21.0801 72.6855 21.6484 71.5313 21.6484C69.627 21.6484 68.2461 20.2227 68.2461 18.3633Z" fill="#262626"/>
<path d="M30.8379 31.3574H28.4922L28.1758 32.3496H26.5957L28.7441 26.0332H30.5859L32.7344 32.3496H31.1543L30.8379 31.3574ZM30.4043 30.0039L29.6641 27.6855L28.9238 30.0039H30.4043Z" fill="#262626"/>
<path d="M38.8711 29.1914C38.8711 30.9785 37.5449 32.3496 35.8027 32.3496H33.2754V26.0332H35.8027C37.5449 26.0332 38.8711 27.4043 38.8711 29.1914ZM37.4824 29.1914C37.4824 28.1094 36.7969 27.4219 35.8047 27.4219H34.7227V30.959H35.8047C36.7969 30.959 37.4824 30.2734 37.4824 29.1895V29.1914Z" fill="#262626"/>
<path d="M38.8711 26.0332H40.4512L41.8496 30.6797L43.248 26.0332H44.8281L42.7715 32.3496H40.9297L38.873 26.0332H38.8711Z" fill="#262626"/>
<path d="M46.8086 26.0332V32.3496H45.3652V26.0332H46.8086Z" fill="#262626"/>
<path d="M47.6211 29.1914C47.6211 27.332 49.002 25.9062 50.9062 25.9062C52.0527 25.9062 53.0625 26.4746 53.6133 27.3672L52.3672 28.0898C52.0879 27.6016 51.5449 27.3145 50.9043 27.3145C49.7852 27.3145 49.0645 28.0625 49.0645 29.1914C49.0645 30.3203 49.7871 31.0684 50.9043 31.0684C51.5449 31.0684 52.0957 30.7793 52.3672 30.293L53.6133 31.0156C53.0723 31.9082 52.0605 32.4785 50.9062 32.4785C49.002 32.4785 47.6211 31.0527 47.6211 29.1934V29.1914Z" fill="#262626"/>
<path d="M58.2617 30.9609V32.3516H54.291V26.0352H58.2168V27.4258H55.7344V28.4727H57.9902V29.8438H55.7344V30.9629H58.2617V30.9609Z" fill="#262626"/>
</g>
<defs>
<clipPath id="clip0_2268_761">
<rect width="100" height="100" fill="white"/>
</clipPath>
</defs>
</svg>
