<svg width="100" height="100" viewBox="0 0 100 100" fill="none" xmlns="http://www.w3.org/2000/svg">
<g clip-path="url(#clip0_2268_722)">
<mask id="mask0_2268_722" style="mask-type:luminance" maskUnits="userSpaceOnUse" x="0" y="0" width="100" height="100">
<path d="M100 0H0V100H100V0Z" fill="white"/>
</mask>
<g mask="url(#mask0_2268_722)">
<path d="M66.6797 0H52.0898C50.9375 0 50 0.9375 50 2.08984C50 3.24219 50.9375 4.17969 52.0898 4.17969H66.6797C68.9844 4.17969 70.8398 6.05469 70.8398 8.33984V22.9297C70.8398 24.082 71.7773 25.0195 72.9297 25.0195C74.082 25.0195 75.0195 24.082 75.0195 22.9297V8.33984C75.0195 3.75 71.2891 0 66.6797 0Z" fill="#262626"/>
<path d="M72.9297 75C71.7773 75 70.8398 75.9375 70.8398 77.0898V91.6797C70.8398 93.9844 68.9648 95.8398 66.6797 95.8398H52.0898C50.9375 95.8398 50 96.7773 50 97.9297C50 99.082 50.9375 100.02 52.0898 100.02H66.6797C71.2695 100.02 75.0195 96.2891 75.0195 91.6797V77.0898C75.0195 75.9375 74.082 75 72.9297 75Z" fill="#262626"/>
<path d="M2.10937 25C3.26172 25 4.19922 24.0625 4.19922 22.9102V8.33984C4.19922 6.03516 6.07422 4.17969 8.35937 4.17969H22.9492C24.1016 4.17969 25.0391 3.24219 25.0391 2.08984C25.0391 0.9375 24.1016 0 22.9492 0H8.35937C3.76953 0 0.0195312 3.73047 0.0195312 8.33984V22.9297C0.0195312 24.082 0.957031 25.0195 2.10937 25.0195V25Z" fill="#262626"/>
<path d="M22.9297 95.8398H8.33984C6.03516 95.8398 4.17969 93.9648 4.17969 91.6797V77.0898C4.17969 75.9375 3.24219 75 2.08984 75C0.937499 75 0 75.9375 0 77.0898V91.6797C0 96.2695 3.73047 100.02 8.33984 100.02H22.9297C24.082 100.02 25.0195 99.082 25.0195 97.9297C25.0195 96.7773 24.082 95.8398 22.9297 95.8398Z" fill="#262626"/>
<path d="M23.4375 44.3359C23.0078 44.3359 22.5586 44.1602 22.2461 43.8477C21.9531 43.5352 21.7578 43.0859 21.7578 42.6562C21.7578 42.2266 21.9336 41.7773 22.2461 41.4648C22.8711 40.8398 23.9844 40.8398 24.6289 41.4648C24.9219 41.7773 25.1172 42.2266 25.1172 42.6562C25.1172 43.0859 24.9414 43.5352 24.6289 43.8477C24.3164 44.1406 23.8672 44.3359 23.4375 44.3359Z" fill="#262626"/>
<path d="M24.7284 37.7528C24.6307 37.7528 24.5135 37.7528 24.3964 37.7137C23.4784 37.538 22.8924 36.659 23.0682 35.7411L23.7128 32.4403C23.8885 31.5223 24.7674 30.9364 25.6854 31.1122C26.6034 31.288 27.1893 32.1669 27.0135 33.0848L26.369 36.3856C26.2128 37.1864 25.5096 37.7333 24.7284 37.7333V37.7528Z" fill="#262626"/>
<path d="M20.8026 57.8319C20.7049 57.8319 20.5878 57.8319 20.4706 57.7928C19.5526 57.6171 18.9667 56.7381 19.1424 55.8202L20.4901 48.9256C20.6659 48.0077 21.5448 47.4217 22.4628 47.5975C23.3807 47.7733 23.9667 48.6522 23.7909 49.5702L22.4432 56.4647C22.287 57.2655 21.5839 57.8124 20.8026 57.8124V57.8319Z" fill="#262626"/>
<path d="M37.5391 86.9727C36.6211 86.9727 35.8594 86.2109 35.8594 85.293V70.7031C35.8594 69.7852 36.6211 69.0234 37.5391 69.0234C38.457 69.0234 39.2188 69.7852 39.2188 70.7031V85.293C39.2188 86.2109 38.457 86.9727 37.5391 86.9727Z" fill="#262626"/>
<path d="M50.2753 72.3631C49.494 72.3631 48.7909 71.8163 48.6346 71.0155L43.3417 44.0233C43.1659 43.1053 43.7518 42.2264 44.6698 42.0506C45.5878 41.8749 46.4667 42.4608 46.6425 43.3788L51.9354 70.371C52.1112 71.2889 51.5253 72.1678 50.6073 72.3436C50.4901 72.3631 50.3924 72.3827 50.2753 72.3827V72.3631Z" fill="#262626"/>
<path d="M50.2734 72.3633H24.8047C23.8867 72.3633 23.125 71.6016 23.125 70.6836C23.125 69.7656 23.8867 69.0039 24.8047 69.0039H50.2734C51.1914 69.0039 51.9531 69.7656 51.9531 70.6836C51.9531 71.6016 51.2109 72.3633 50.2734 72.3633Z" fill="#262626"/>
<path d="M47.6172 86.9727C46.6992 86.9727 45.9375 86.2109 45.9375 85.293V70.7031C45.9375 69.7852 46.6992 69.0234 47.6172 69.0234C48.5352 69.0234 49.2969 69.7852 49.2969 70.7031V85.293C49.2969 86.2109 48.5352 86.9727 47.6172 86.9727Z" fill="#262626"/>
<path d="M49.6853 34.4538C48.904 34.4538 48.2009 33.907 48.0447 33.0867C47.6931 31.2703 46.3845 29.8054 44.6072 29.2585C43.7283 28.9851 43.24 28.0281 43.5134 27.1492C43.7869 26.2703 44.7439 25.782 45.6228 26.0554C48.5525 26.9734 50.74 29.4343 51.3454 32.4421C51.5212 33.3601 50.9353 34.239 50.0173 34.4148C49.9001 34.4343 49.8025 34.4538 49.6853 34.4538Z" fill="#262626"/>
<path d="M54.2792 57.8319C53.4979 57.8319 52.7948 57.285 52.6385 56.4843L48.0682 33.1053C47.8924 32.1874 48.4784 31.3085 49.3964 31.1327C50.3143 30.9569 51.1932 31.5428 51.369 32.4608L55.9393 55.8397C56.1151 56.7577 55.5292 57.6366 54.6112 57.8124C54.494 57.8319 54.3964 57.8514 54.2792 57.8514V57.8319Z" fill="#262626"/>
<path d="M45.115 29.3359C44.9392 29.3359 44.7829 29.3164 44.6072 29.2578C39.9783 27.793 35.0759 27.793 30.447 29.2578C29.5681 29.5313 28.6111 29.043 28.3376 28.1641C28.0642 27.2852 28.5525 26.3281 29.4314 26.0547C34.7244 24.375 40.3298 24.375 45.6228 26.0547C46.5017 26.3281 46.99 27.2852 46.7165 28.1641C46.4822 28.8867 45.8181 29.3359 45.115 29.3359Z" fill="#262626"/>
<path d="M50.8417 61.7381C48.6932 61.7381 46.5448 60.4881 46.0174 57.7733C45.8417 56.8553 46.4276 55.9764 47.3456 55.8007C48.2635 55.6249 49.1424 56.2108 49.3182 57.1288C49.6112 58.5936 50.9979 58.3983 51.2714 58.3397C51.5448 58.2811 52.912 57.9491 52.619 56.4842C52.4432 55.5663 53.0292 54.6874 53.9471 54.5116C54.8651 54.3358 55.744 54.9217 55.9198 55.8397C56.5448 59.0233 54.3768 61.1717 51.9159 61.6405C51.5643 61.6991 51.2128 61.7381 50.8417 61.7381Z" fill="#262626"/>
<path d="M27.4609 86.9727C26.543 86.9727 25.7812 86.2109 25.7812 85.293V70.7031C25.7812 69.7852 26.543 69.0234 27.4609 69.0234C28.3789 69.0234 29.1406 69.7852 29.1406 70.7031V85.293C29.1406 86.2109 28.3789 86.9727 27.4609 86.9727Z" fill="#262626"/>
<path d="M24.8065 72.3631C24.7089 72.3631 24.5917 72.3631 24.4745 72.3241C23.5565 72.1483 22.9706 71.2694 23.1464 70.3514L28.4393 43.3592C28.6151 42.4413 29.494 41.8553 30.412 42.0311C31.3299 42.2069 31.9159 43.0858 31.7401 44.0038L26.4471 70.996C26.2909 71.7967 25.5878 72.3436 24.8065 72.3436V72.3631Z" fill="#262626"/>
<path d="M24.22 61.7381C23.8685 61.7381 23.4974 61.6991 23.1458 61.6405C20.6849 61.1522 18.5169 59.0038 19.1419 55.8397C19.3177 54.9217 20.1966 54.3358 21.1146 54.5116C22.0325 54.6874 22.6185 55.5663 22.4427 56.4842C22.1497 57.9491 23.5169 58.3007 23.7903 58.3397C24.0638 58.3983 25.4505 58.5936 25.7435 57.1288C25.9192 56.2108 26.7981 55.6249 27.7161 55.8007C28.6341 55.9764 29.22 56.8553 29.0442 57.7733C28.5169 60.4881 26.3685 61.7577 24.22 61.7577V61.7381Z" fill="#262626"/>
<path d="M25.3729 34.4529C25.2753 34.4529 25.1581 34.4529 25.0409 34.4138C24.1229 34.238 23.537 33.3591 23.7128 32.4412C24.2987 29.4333 26.4862 26.9724 29.4354 26.0544C30.3143 25.781 31.2714 26.2693 31.5448 27.1482C31.8182 28.0271 31.3299 28.9841 30.451 29.2576C28.6932 29.8044 27.3846 31.2888 27.0135 33.0857C26.8573 33.8865 26.1542 34.4529 25.3729 34.4529Z" fill="#262626"/>
<path d="M42.5781 91.836C40.8594 91.836 39.2383 91.25 38.0273 90.2149C36.6406 89.0235 35.8594 87.2656 35.8594 85.293C35.8594 83.3203 36.6211 83.6133 37.5391 83.6133C38.457 83.6133 39.2188 84.375 39.2188 85.293C39.2188 87.6563 41.0352 88.4961 42.5781 88.4961C44.1211 88.4961 45.9375 87.6563 45.9375 85.293C45.9375 82.9297 46.6992 83.6133 47.6172 83.6133C48.5352 83.6133 49.2969 84.375 49.2969 85.293C49.2969 89.5899 45.918 91.8555 42.5781 91.8555V91.836Z" fill="#262626"/>
<path d="M37.5391 28.1641C32.0703 28.1641 27.4609 23.5547 27.4609 18.0859C27.4609 12.6172 32.0703 8.00781 37.5391 8.00781C43.0078 8.00781 47.6172 12.6172 47.6172 18.0859C47.6172 23.5547 43.0078 28.1641 37.5391 28.1641ZM37.5391 11.3672C33.9063 11.3672 30.8203 14.4531 30.8203 18.0859C30.8203 21.7188 33.9063 24.8047 37.5391 24.8047C41.1719 24.8047 44.2578 21.7188 44.2578 18.0859C44.2578 14.4531 41.1719 11.3672 37.5391 11.3672Z" fill="#262626"/>
<path d="M32.5 91.836C30.7813 91.836 29.1602 91.25 27.9492 90.2149C26.5625 89.0235 25.7812 87.2656 25.7812 85.293C25.7812 83.3203 26.543 83.6133 27.4609 83.6133C28.3789 83.6133 29.1406 84.375 29.1406 85.293C29.1406 87.6563 30.957 88.4961 32.5 88.4961C34.043 88.4961 35.8594 87.6563 35.8594 85.293C35.8594 82.9297 36.6211 83.6133 37.5391 83.6133C38.457 83.6133 39.2188 84.375 39.2188 85.293C39.2188 89.5899 35.8398 91.8555 32.5 91.8555V91.836Z" fill="#262626"/>
<path d="M72.4805 51.1719H2.55859C1.48438 51.1719 0.605469 50.293 0.605469 49.2188C0.605469 48.1445 1.48438 47.2656 2.55859 47.2656H72.4805C73.5547 47.2656 74.4336 48.1445 74.4336 49.2188C74.4336 50.293 73.5547 51.1719 72.4805 51.1719Z" fill="#262626"/>
</g>
</g>
<defs>
<clipPath id="clip0_2268_722">
<rect width="100" height="100" fill="white"/>
</clipPath>
</defs>
</svg>
