<svg width="64" height="64" viewBox="0 0 64 64" fill="none" xmlns="http://www.w3.org/2000/svg">
<g clip-path="url(#clip0_2268_884)">
<path d="M44.8008 0H18.1341C15.1933 0 12.8008 2.39253 12.8008 5.33333V58.6667C12.8008 61.6075 15.1933 64 18.1341 64H45.8675C48.8083 64 51.2008 61.6075 51.2008 58.6667V5.33333C51.2008 2.39253 48.8083 0 45.8675 0H44.8008ZM41.1069 2.13333C40.7421 2.7616 40.5341 3.49013 40.5341 4.26667C40.5341 4.85547 40.0562 5.33333 39.4674 5.33333H24.5341C23.9464 5.33333 23.4674 4.85547 23.4674 4.26667C23.4674 3.49013 23.2594 2.7616 22.8946 2.13333H41.1069ZM49.0675 5.33333V58.6667C49.0675 60.4309 47.6317 61.8667 45.8675 61.8667H18.1341C16.3698 61.8667 14.9341 60.4309 14.9341 58.6667V5.33333C14.9341 3.56907 16.3698 2.13333 18.1341 2.13333H19.2008C20.3773 2.13333 21.3341 3.09013 21.3341 4.26667C21.3341 6.03093 22.7698 7.46667 24.5341 7.46667H39.4674C41.2317 7.46667 42.6674 6.03093 42.6674 4.26667C42.6674 3.09013 43.6243 2.13333 44.8008 2.13333H45.8675C47.6317 2.13333 49.0675 3.56907 49.0675 5.33333Z" fill="#262626"/>
<path d="M38.3999 57.5996H25.5999C25.0111 57.5996 24.5332 58.0764 24.5332 58.6663C24.5332 59.2561 25.0111 59.7329 25.5999 59.7329H38.3999C38.9897 59.7329 39.4665 59.2561 39.4665 58.6663C39.4665 58.0764 38.9897 57.5996 38.3999 57.5996Z" fill="#262626"/>
<path d="M5.64613 37.0209C5.85413 37.2289 6.1272 37.3335 6.40027 37.3335C6.67333 37.3335 6.9464 37.2289 7.1544 37.0209C7.57147 36.6039 7.57147 35.9297 7.1544 35.5127L2.5752 30.9335L7.1544 26.3543C7.57147 25.9372 7.57147 25.2631 7.1544 24.846C6.73733 24.4289 6.0632 24.4289 5.64613 24.846L0.3128 30.1793C-0.104267 30.5964 -0.104267 31.2705 0.3128 31.6876L5.64613 37.0209Z" fill="#262626"/>
<path d="M56.846 37.0209C57.054 37.2289 57.3271 37.3335 57.6001 37.3335C57.8732 37.3335 58.1463 37.2289 58.3543 37.0209L63.6876 31.6876C64.1047 31.2705 64.1047 30.5964 63.6876 30.1793L58.3543 24.846C57.9372 24.4289 57.2631 24.4289 56.846 24.846C56.4289 25.2631 56.4289 25.9372 56.846 26.3543L61.4252 30.9335L56.846 35.5127C56.4289 35.9297 56.4289 36.6039 56.846 37.0209Z" fill="#262626"/>
<path d="M25.1566 29.2385C24.9442 29.2385 24.7319 29.1487 24.5767 29.0017C24.4297 28.8465 24.3398 28.6341 24.3398 28.4218C24.3398 28.2094 24.4297 27.9971 24.5767 27.8419C24.8789 27.5397 25.4261 27.5397 25.7365 27.8419C25.8835 27.9971 25.9733 28.2094 25.9733 28.4218C25.9733 28.6341 25.8835 28.8465 25.7365 29.0017C25.5813 29.1487 25.3689 29.2385 25.1566 29.2385Z" fill="#262626"/>
<path d="M25.7842 26.0323C25.7327 26.0323 25.6797 26.0274 25.6266 26.0168C25.1839 25.9302 24.8956 25.5006 24.9822 25.0579L25.2966 23.4546C25.3832 23.012 25.8095 22.7204 26.2555 22.8102C26.6981 22.8968 26.9864 23.3264 26.8999 23.7691L26.5854 25.3724C26.5087 25.7628 26.1673 26.0323 25.7842 26.0323Z" fill="#262626"/>
<path d="M23.8721 35.7941C23.8206 35.7941 23.7675 35.7892 23.7145 35.7786C23.2718 35.692 22.9835 35.2624 23.07 34.8197L23.7267 31.4703C23.8133 31.0276 24.238 30.736 24.6856 30.8258C25.1282 30.9124 25.4166 31.342 25.33 31.7847L24.6733 35.1342C24.5965 35.5238 24.2551 35.7941 23.8721 35.7941Z" fill="#262626"/>
<path d="M32.0082 49.9599C31.5573 49.9599 31.1914 49.594 31.1914 49.1431V42.0472C31.1914 41.5964 31.5573 41.2305 32.0082 41.2305C32.459 41.2305 32.8249 41.5964 32.8249 42.0472V49.1431C32.8249 49.594 32.459 49.9599 32.0082 49.9599Z" fill="#262626"/>
<path d="M38.2017 42.8647C37.8186 42.8647 37.4772 42.5944 37.4012 42.2048L34.8318 29.0862C34.7452 28.6435 35.0335 28.2147 35.4762 28.1273C35.9189 28.0383 36.3476 28.3299 36.435 28.7718L39.0045 41.8903C39.0911 42.333 38.8028 42.7618 38.3601 42.8492C38.3062 42.8598 38.2531 42.8647 38.2017 42.8647Z" fill="#262626"/>
<path d="M38.2016 42.864H25.8148C25.3639 42.864 24.998 42.4981 24.998 42.0472C24.998 41.5964 25.3639 41.2305 25.8148 41.2305H38.2008C38.6516 41.2305 39.0175 41.5964 39.0175 42.0472C39.0175 42.4981 38.6524 42.864 38.2016 42.864Z" fill="#262626"/>
<path d="M36.9085 49.9599C36.4577 49.9599 36.0918 49.594 36.0918 49.1431V42.0472C36.0918 41.5964 36.4577 41.2305 36.9085 41.2305C37.3594 41.2305 37.7253 41.5964 37.7253 42.0472V49.1431C37.7253 49.594 37.3594 49.9599 36.9085 49.9599Z" fill="#262626"/>
<path d="M37.9191 24.4289C37.536 24.4289 37.1946 24.1586 37.1187 23.769C36.9464 22.8886 36.3077 22.1739 35.4517 21.9036C35.0221 21.7672 34.7828 21.309 34.9192 20.8785C35.0556 20.4481 35.5162 20.2096 35.9442 20.346C37.3702 20.7969 38.4345 21.9877 38.722 23.4554C38.8085 23.8981 38.5194 24.3277 38.0776 24.4142C38.0236 24.424 37.9706 24.4289 37.9191 24.4289Z" fill="#262626"/>
<path d="M40.1457 35.7941C39.7627 35.7941 39.4213 35.5237 39.3453 35.1341L37.1189 23.7691C37.0323 23.3264 37.3206 22.8976 37.7633 22.8102C38.206 22.7204 38.6348 23.012 38.7221 23.4546L40.9486 34.8197C41.0352 35.2624 40.7469 35.6911 40.3042 35.7785C40.2503 35.7892 40.1972 35.7941 40.1457 35.7941Z" fill="#262626"/>
<path d="M35.6972 21.9417C35.6155 21.9417 35.533 21.9295 35.4513 21.9034C33.1987 21.1928 30.8187 21.1928 28.5661 21.9034C28.1381 22.0398 27.6775 21.8013 27.5419 21.37C27.4063 20.9404 27.6448 20.4814 28.0753 20.3458C30.648 19.5332 33.3694 19.5332 35.943 20.3458C36.3734 20.4814 36.6119 20.9404 36.4763 21.37C36.3652 21.7188 36.0435 21.9417 35.6972 21.9417Z" fill="#262626"/>
<path d="M38.4833 37.6937C37.4387 37.6937 36.3973 37.0853 36.1384 35.7621C36.0518 35.3194 36.3401 34.8907 36.7828 34.8033C37.2255 34.7151 37.6543 35.005 37.7417 35.4477C37.8813 36.1615 38.5568 36.0643 38.6891 36.0398C38.8231 36.0137 39.4846 35.8471 39.345 35.1332C39.2584 34.6906 39.5475 34.2618 39.9902 34.1752C40.4329 34.0862 40.8617 34.3777 40.9482 34.8204C41.2504 36.3649 40.1985 37.4095 39.0036 37.6439C38.832 37.6766 38.6572 37.6937 38.4833 37.6937Z" fill="#262626"/>
<path d="M27.1078 49.9599C26.6569 49.9599 26.291 49.594 26.291 49.1431V42.0472C26.291 41.5964 26.6569 41.2305 27.1078 41.2305C27.5586 41.2305 27.9245 41.5964 27.9245 42.0472V49.1431C27.9245 49.594 27.5586 49.9599 27.1078 49.9599Z" fill="#262626"/>
<path d="M25.8154 42.8648C25.764 42.8648 25.7109 42.8599 25.6578 42.8492C25.2151 42.7627 24.9268 42.3331 25.0134 41.8904L27.5829 28.7718C27.6695 28.3291 28.095 28.0383 28.5417 28.1274C28.9844 28.2139 29.2727 28.6436 29.1862 29.0862L26.6167 42.2048C26.5399 42.5944 26.1985 42.8648 25.8154 42.8648Z" fill="#262626"/>
<path d="M25.5341 37.6933C25.3601 37.6933 25.1854 37.6762 25.0147 37.6427C23.8198 37.4083 22.7678 36.3645 23.07 34.8192C23.1557 34.3765 23.5821 34.0858 24.028 34.174C24.4707 34.2606 24.7598 34.6893 24.6733 35.132C24.5336 35.8459 25.1952 36.0125 25.3291 36.0386C25.4598 36.0631 26.1369 36.1595 26.2765 35.4465C26.3631 35.0038 26.7894 34.7139 27.2354 34.8021C27.6781 34.8886 27.9664 35.3182 27.8798 35.7609C27.6201 37.0849 26.5787 37.6933 25.5341 37.6933Z" fill="#262626"/>
<path d="M26.0986 24.4288C26.0472 24.4288 25.9941 24.4239 25.941 24.4133C25.4983 24.3267 25.21 23.8979 25.2966 23.4544C25.5841 21.9875 26.6483 20.7959 28.0744 20.345C28.5032 20.2086 28.963 20.4471 29.0994 20.8776C29.2358 21.308 28.9965 21.7662 28.5669 21.9026C27.7109 22.1729 27.0722 22.8876 26.8999 23.768C26.8231 24.1593 26.4817 24.4288 26.0986 24.4288Z" fill="#262626"/>
<path d="M34.4584 52.3299C33.6212 52.3299 32.8339 52.0497 32.2417 51.5401C31.5647 50.9577 31.1914 50.1067 31.1914 49.1429C31.1914 48.6921 31.5573 48.3262 32.0082 48.3262C32.459 48.3262 32.8249 48.6921 32.8249 49.1429C32.8249 50.2896 33.7045 50.6964 34.4584 50.6964C35.2123 50.6964 36.0919 50.2896 36.0919 49.1429C36.0919 48.6921 36.4578 48.3262 36.9086 48.3262C37.3595 48.3262 37.7254 48.6921 37.7254 49.1429C37.7254 51.2354 36.0821 52.3299 34.4584 52.3299Z" fill="#262626"/>
<path d="M32.0079 21.3732C29.3518 21.3732 27.1074 19.1288 27.1074 16.4728C27.1074 13.8167 29.3518 11.5723 32.0079 11.5723C34.664 11.5723 36.9084 13.8167 36.9084 16.4728C36.9084 19.1288 34.664 21.3732 32.0079 21.3732ZM32.0079 13.2058C30.2372 13.2058 28.7409 14.702 28.7409 16.4728C28.7409 18.2435 30.2372 19.7397 32.0079 19.7397C33.7786 19.7397 35.2749 18.2435 35.2749 16.4728C35.2749 14.702 33.7786 13.2058 32.0079 13.2058Z" fill="#262626"/>
<path d="M29.558 52.3299C28.7208 52.3299 27.9335 52.0497 27.3414 51.5401C26.6643 50.9577 26.291 50.1067 26.291 49.1429C26.291 48.6921 26.6569 48.3262 27.1078 48.3262C27.5586 48.3262 27.9245 48.6921 27.9245 49.1429C27.9245 50.2896 28.8041 50.6964 29.558 50.6964C30.3119 50.6964 31.1915 50.2896 31.1915 49.1429C31.1915 48.6921 31.5574 48.3262 32.0082 48.3262C32.4591 48.3262 32.825 48.6921 32.825 49.1429C32.825 51.2354 31.1817 52.3299 29.558 52.3299Z" fill="#262626"/>
</g>
<defs>
<clipPath id="clip0_2268_884">
<rect width="64" height="64" fill="white"/>
</clipPath>
</defs>
</svg>
