<svg width="64" height="64" viewBox="0 0 64 64" fill="none" xmlns="http://www.w3.org/2000/svg">
<path d="M59.4653 43.1888C59.9828 43.1888 60.4023 42.7693 60.4023 42.2518V4.0605C60.4023 1.8215 58.5807 0 56.3418 0H7.5605C5.2365 0 3.5 2.40762 3.5 4.56025V59.9394C3.5 62.1784 5.32163 63.9999 7.5605 63.9999H11.3616C11.8791 63.9999 12.2986 63.5804 12.2986 63.0629C12.2986 62.5454 11.8791 62.1259 11.3616 62.1259H7.5605C6.35488 62.1259 5.374 61.145 5.374 59.9394V4.56025C5.374 3.35112 6.38288 1.874 7.5605 1.874H45.9154V62.1258H15.6438C15.1263 62.1258 14.7067 62.5452 14.7067 63.0628C14.7067 63.5803 15.1263 63.9997 15.6438 63.9997H56.3418C58.5807 63.9997 60.4023 62.1782 60.4023 59.9393V46.4217C60.4023 45.9041 59.9828 45.4847 59.4653 45.4847C58.9478 45.4847 58.5283 45.9042 58.5283 46.4217V59.9393C58.5283 61.1449 57.5474 62.1258 56.3418 62.1258H47.7895V57.5042H53.0839C53.6014 57.5042 54.0209 57.0848 54.0209 56.5672C54.0209 56.0496 53.6014 55.6302 53.0839 55.6302H47.7895V49.3505H49.4996C50.0171 49.3505 50.4366 48.931 50.4366 48.4135C50.4366 47.896 50.0171 47.4765 49.4996 47.4765H47.7895V41.1968H53.0839C53.6014 41.1968 54.0209 40.7773 54.0209 40.2598C54.0209 39.7422 53.6014 39.3228 53.0839 39.3228H47.7895V33.043H49.4996C50.0171 33.043 50.4366 32.6235 50.4366 32.106C50.4366 31.5884 50.0171 31.169 49.4996 31.169H47.7895V24.8892H53.0839C53.6014 24.8892 54.0209 24.4697 54.0209 23.9522C54.0209 23.4347 53.6014 23.0152 53.0839 23.0152H47.7895V16.7355H49.4996C50.0171 16.7355 50.4366 16.316 50.4366 15.7985C50.4366 15.2809 50.0171 14.8615 49.4996 14.8615H47.7895V8.58162H54.0209C54.5384 8.58162 54.9579 8.16213 54.9579 7.64463C54.9579 7.12713 54.5384 6.70762 54.0209 6.70762H47.7895V1.87413H56.3418C57.5474 1.87413 58.5283 2.855 58.5283 4.06063V42.2518C58.5283 42.7693 58.9478 43.1888 59.4653 43.1888Z" fill="#262626"/>
<path d="M22.5008 32.6315C20.6826 34.2354 19.4068 36.4253 18.9081 38.7978L18.3475 41.4653C17.8266 43.9437 17.5625 46.4847 17.5625 49.0174C17.5625 50.0992 18.4426 50.9793 19.5245 50.9793H29.3201V52.2122C29.3201 52.7298 29.7396 53.1492 30.2571 53.1492C30.7746 53.1492 31.1941 52.7297 31.1941 52.2122V50.9793H40.9898C42.0714 50.9793 42.9515 50.1024 42.9518 49.0245C42.9523 46.4897 42.6881 43.9463 42.1668 41.4652L41.6061 38.7977C41.1088 36.432 39.838 34.2467 38.028 32.6445C37.2875 31.9889 37.0895 30.9185 37.5466 30.0417L39.4859 26.321C40.4234 24.5224 40.9189 22.4997 40.9189 20.4712V17.5649C40.9189 16.8178 40.4844 16.1248 39.8119 15.7989L33.9831 12.977C33.953 12.9625 33.9336 12.9315 33.9336 12.898V11.8737C33.9336 11.0362 33.2523 10.3549 32.4149 10.3549H31.1944V9.42942C32.2641 9.0443 33.0313 8.01955 33.0313 6.8188C33.0313 5.2893 31.7869 4.04492 30.2574 4.04492C28.7279 4.04492 27.4835 5.28917 27.4835 6.8188C27.4835 8.01955 28.2506 9.0443 29.3204 9.42942V10.3549H28.0999C27.2624 10.3549 26.5811 11.0363 26.5811 11.8737V12.898C26.5811 12.9314 26.5616 12.9624 26.5315 12.977L20.7026 15.799C20.0303 16.1248 19.5957 16.8178 19.5957 17.5649V20.4712C19.5957 21.6294 19.7548 22.782 20.0681 23.897C20.2083 24.3952 20.7255 24.6857 21.2239 24.5454C21.722 24.4053 22.0124 23.8879 21.8723 23.3897C21.6051 22.4399 21.4697 21.4579 21.4697 20.4712V17.5649C21.4697 17.5315 21.4892 17.5004 21.5192 17.4858L27.3479 14.6639C28.0205 14.3384 28.455 13.6453 28.455 12.898V12.229H32.0596V12.8982C32.0596 13.6454 32.4941 14.3385 33.1667 14.664L38.9953 17.4858C39.026 17.5007 39.045 17.5309 39.045 17.5649V20.4712C39.045 22.1992 38.6229 23.9225 37.8243 25.4548L35.885 29.1754C35.0294 30.817 35.4 32.8207 36.7861 34.0478C38.2968 35.3849 39.3574 37.2088 39.7724 39.1833L40.333 41.8507C40.8279 44.2052 41.0785 46.6187 41.078 49.024C41.078 49.068 41.0378 49.1052 40.9901 49.1052H19.5244C19.476 49.1052 19.4365 49.0658 19.4365 49.0173C19.4365 46.6138 19.6871 44.2027 20.1815 41.8508L20.7421 39.1832C21.1583 37.2032 22.223 35.3754 23.7404 34.0368C25.121 32.8189 25.4866 30.8197 24.6295 29.1753L23.4087 26.8332C23.1695 26.3744 22.6035 26.196 22.1447 26.4354C21.6857 26.6745 21.5076 27.2404 21.7469 27.6994L22.9676 30.0415C23.4255 30.92 23.2335 31.985 22.5008 32.6315ZM30.2571 5.91905C30.7533 5.91905 31.1569 6.32267 31.1569 6.8188C31.1569 7.31505 30.7533 7.71867 30.2571 7.71867C29.761 7.71867 29.3574 7.31505 29.3574 6.8188C29.3574 6.32267 29.761 5.91905 30.2571 5.91905Z" fill="#262626"/>
<path d="M10.2072 46.148C9.8413 45.7823 9.24792 45.7823 8.88205 46.148C8.51605 46.514 8.51605 47.1073 8.88205 47.4733L11.199 49.7903C11.382 49.9731 11.6218 50.0646 11.8617 50.0646C12.1015 50.0646 12.3413 49.9731 12.5243 49.7903L14.8413 47.4733C15.2073 47.1073 15.2073 46.514 14.8413 46.148C14.4754 45.7823 13.882 45.7823 13.5162 46.148L12.7988 46.8654V8.99802L13.5162 9.71539C13.6992 9.89827 13.9389 9.98977 14.1788 9.98977C14.4187 9.98977 14.6584 9.89827 14.8414 9.71539C15.2074 9.34939 15.2074 8.75614 14.8414 8.39014L12.5244 6.07314C12.1585 5.70739 11.5652 5.70739 11.1993 6.07314L8.88192 8.39014C8.51592 8.75614 8.51592 9.34939 8.88192 9.71539C9.2478 10.0811 9.84117 10.0811 10.207 9.71539L10.9244 8.99802V46.8654L10.2072 46.148Z" fill="#262626"/>
<path d="M38.6545 59.047C38.8375 59.2299 39.0772 59.3214 39.3171 59.3214C39.557 59.3214 39.7967 59.2299 39.9797 59.047L42.2967 56.73C42.6627 56.364 42.6627 55.7708 42.2967 55.4048L39.9797 53.0878C39.6139 52.722 39.0205 52.722 38.6546 53.0878C38.2886 53.4538 38.2886 54.047 38.6546 54.413L39.372 55.1303H21.4239L22.1412 54.413C22.5072 54.047 22.5072 53.4538 22.1412 53.0878C21.7754 52.722 21.182 52.722 20.8161 53.0878L18.4991 55.4048C18.1331 55.7708 18.1331 56.364 18.4991 56.73L20.8161 59.047C20.9991 59.2299 21.2389 59.3214 21.4787 59.3214C21.7186 59.3214 21.9584 59.2299 22.1414 59.047C22.5074 58.681 22.5074 58.0878 22.1414 57.7218L21.424 57.0045H39.3719L38.6545 57.7218C38.2885 58.0878 38.2885 58.681 38.6545 59.047Z" fill="#262626"/>
</svg>
