<svg width="64" height="64" viewBox="0 0 64 64" fill="none" xmlns="http://www.w3.org/2000/svg">
<path d="M57.288 57.4795L54.4908 25.9993C54.4449 25.4835 53.9902 25.1038 53.4739 25.1484C52.9582 25.1942 52.5773 25.6495 52.623 26.1653L55.3297 56.625H17.4482C16.9302 56.625 16.5106 57.0446 16.5106 57.5625C16.5106 58.0804 16.9302 58.5 17.4482 58.5H55.4094C55.1811 60.4642 53.5029 62.125 51.3213 62.125H12.6782C10.4962 62.125 8.81816 60.464 8.59 58.5H13.0658C13.5837 58.5 14.0033 58.0804 14.0033 57.5625C14.0033 57.0446 13.5837 56.625 13.0658 56.625H8.66968L12.0082 19.0542C12.1982 16.9158 13.9604 15.3033 16.1073 15.3033H20.438V21.3695C20.438 21.8874 20.8577 22.307 21.3755 22.307C21.8934 22.307 22.313 21.8874 22.313 21.3695V15.3033H41.6862V21.3909C41.6862 21.9087 42.1059 22.3284 42.6238 22.3284C43.1417 22.3284 43.5613 21.9087 43.5613 21.3909V15.3033H47.892C50.0389 15.3033 51.801 16.9158 51.9911 19.0542L52.2294 21.7365C52.2753 22.2522 52.731 22.6327 53.2462 22.5874C53.762 22.5416 54.1429 22.0862 54.0971 21.5705L53.8589 18.8882C53.5822 15.7756 51.0171 13.4282 47.8922 13.4282H43.5614V11.5616C43.5613 5.1865 38.3748 0 31.9997 0C25.6246 0 20.438 5.1865 20.438 11.5616V13.4282H16.1073C12.9822 13.4282 10.4171 15.7755 10.1406 18.8882L6.7114 57.4795C6.4004 60.9806 9.16416 64 12.6782 64H51.3213C52.9979 64 54.6086 63.2906 55.7406 62.0538C56.8724 60.8169 57.4362 59.1495 57.288 57.4795ZM22.313 11.5616C22.313 6.2205 26.6586 1.875 31.9997 1.875C37.3408 1.875 41.6862 6.2205 41.6862 11.5616V13.4282H22.313V11.5616Z" fill="#262626"/>
<path d="M33.3953 52.683H30.6101L30.2081 51.1851C28.6741 47.8732 25.61 45.6412 21.3482 44.7331C18.9015 44.2112 16.707 44.2579 15.618 44.3322L15.3145 44.3534L15.3185 44.0394C15.376 39.5075 17.5273 34.9502 18.68 32.5039L18.8338 32.2027C19.6213 30.4968 19.81 29.0796 19.851 28.3879L19.8654 28.1143H23.3684V31.2712C23.3684 31.3837 23.4647 31.4834 23.5734 31.4834C23.6821 31.4834 23.7785 31.3837 23.7785 31.2712V28.1163H26.8693V31.2734C26.8693 31.3859 26.9657 31.4855 27.0743 31.4855C27.183 31.4855 27.2794 31.3859 27.2794 31.2734V28.1163H30.3886V31.2734C30.3886 31.3859 30.485 31.4855 30.5937 31.4855C30.7024 31.4855 30.7988 31.3859 30.7988 31.2734V28.1163H33.908V31.2734C33.908 31.3859 34.0044 31.4855 34.113 31.4855C34.2217 31.4855 34.3181 31.3859 34.3181 31.2734V28.1163H37.4273V31.2734C37.4273 31.3859 37.5237 31.4855 37.6324 31.4855C37.7411 31.4855 37.8375 31.3859 37.8375 31.2734V28.1163H40.7969V31.2734C40.7969 31.3859 40.8933 31.4855 41.0021 31.4855C41.1107 31.4855 41.2071 31.3859 41.2071 31.2734V28.1163H44.1563L44.1645 28.3964C44.1748 28.7995 44.2835 30.2656 45.1859 32.2133L45.3992 32.6419C46.5313 35.0818 48.6417 39.6179 48.6785 44.0584V44.3703L48.3792 44.3512C47.2901 44.277 45.0957 44.2303 42.6489 44.7523C38.3707 45.6603 35.3087 47.8859 33.7931 51.1957L33.3849 52.6808H33.3891L33.3953 52.683ZM31.0387 52.1016H32.9727L33.2865 50.9708C34.8781 47.4807 38.0816 45.132 42.5485 44.1836C44.8475 43.6935 46.9312 43.6914 48.1228 43.7529C47.9936 39.5415 45.9939 35.2345 44.9049 32.8943L44.8434 32.7627L44.6977 32.4785C43.8917 30.7387 43.6846 29.3491 43.6313 28.6977H41.7793V31.2734C41.7793 31.7041 41.4265 32.0669 41.0123 32.0669C40.598 32.0669 40.2453 31.7019 40.2453 31.2734V28.6977H38.4097V31.2734C38.4097 31.7041 38.0569 32.0669 37.6426 32.0669C37.2284 32.0669 36.8756 31.7019 36.8756 31.2734V28.6977H34.8903V31.2734C34.8903 31.7041 34.5376 32.0669 34.1233 32.0669C33.709 32.0669 33.3562 31.7019 33.3562 31.2734V28.6977H31.3709V31.2734C31.3709 31.7041 31.0182 32.0669 30.6039 32.0669C30.1897 32.0669 29.8369 31.7019 29.8369 31.2734V28.6977H27.8517V31.2734C27.8517 31.7041 27.4989 32.0669 27.0846 32.0669C26.6703 32.0669 26.3176 31.7019 26.3176 31.2734V28.6977H24.3507V31.2734C24.3507 31.7041 23.998 32.0669 23.5837 32.0669C23.1694 32.0669 22.8166 31.7019 22.8166 31.2734V28.6977H20.3986C20.3228 29.4955 20.0869 30.8596 19.3445 32.4658L19.1886 32.767C18.0811 35.1072 16.0405 39.4311 15.8928 43.7317C17.0864 43.6723 19.1661 43.6744 21.4672 44.1624C25.9156 45.1108 29.117 47.4552 30.729 50.9475L30.7618 51.0387L31.0469 52.0974L31.0387 52.1016Z" fill="#262626"/>
<path d="M33.3949 52.8003H30.5236L30.1011 51.226C28.5814 47.9523 25.5481 45.7479 21.3253 44.8483C18.895 44.3307 16.7107 44.3752 15.6238 44.4495L15.1992 44.4791L15.2054 44.0379C15.2628 39.4827 17.4183 34.9127 18.575 32.4579V32.4515L18.7309 32.1503C19.5103 30.4615 19.6948 29.0632 19.7359 28.3801L19.7563 27.9961H23.4808V31.2719C23.4808 31.3186 23.5279 31.3674 23.5731 31.3674C23.6182 31.3674 23.6654 31.3186 23.6654 31.2719V28.0003H26.9817V31.2761C26.9817 31.3228 27.0288 31.3716 27.0739 31.3716C27.1191 31.3716 27.1663 31.3228 27.1663 31.2761V28.0003H30.5011V31.2761C30.5011 31.3228 30.5482 31.3716 30.5933 31.3716C30.6384 31.3716 30.6856 31.3228 30.6856 31.2761V28.0003H34.0204V31.2761C34.0204 31.3228 34.0675 31.3716 34.1127 31.3716C34.1578 31.3716 34.205 31.3228 34.205 31.2761V28.0003H37.5398V31.2761C37.5398 31.3228 37.5869 31.3716 37.632 31.3716C37.6771 31.3716 37.7243 31.3228 37.7243 31.2761V28.0003H40.9094V31.2761C40.9094 31.3228 40.9566 31.3716 41.0017 31.3716C41.0468 31.3716 41.0939 31.3228 41.0939 31.2761V28.0003H44.2667L44.277 28.3949C44.2872 28.7917 44.3939 30.2344 45.286 32.1651L45.5014 32.5979C46.6375 35.0442 48.752 39.5972 48.791 44.0612V44.4983L48.3706 44.4707C47.2856 44.3964 45.1015 44.3519 42.6691 44.8695C38.4319 45.7691 35.3986 47.9735 33.8953 51.2409L33.4892 52.7175L33.3846 52.6857V52.8024L33.3949 52.8003ZM30.6959 52.5669H33.3047L33.6923 51.156L33.6963 51.1475C35.2283 47.8059 38.3171 45.5548 42.6322 44.6383C45.0891 44.1143 47.2959 44.1609 48.3931 44.2352L48.5715 44.2458V44.0591C48.5347 39.6482 46.4345 35.1269 45.3045 32.6955L45.0912 32.267C44.1765 30.2917 44.0699 28.8087 44.0575 28.3991L44.0535 28.2315H41.3278V31.2719C41.3278 31.448 41.178 31.6029 41.0079 31.6029C40.8376 31.6029 40.6879 31.448 40.6879 31.2719V28.2337H37.954V31.274C37.954 31.4501 37.8043 31.605 37.6341 31.605C37.4639 31.605 37.3142 31.4501 37.3142 31.274V28.2337H34.4306V31.274C34.4306 31.4501 34.2808 31.605 34.1107 31.605C33.9404 31.605 33.7907 31.4501 33.7907 31.274V28.2337H30.9071V31.274C30.9071 31.4501 30.7574 31.605 30.5871 31.605C30.417 31.605 30.2672 31.4501 30.2672 31.274V28.2337H27.3836V31.274C27.3836 31.4501 27.2339 31.605 27.0637 31.605C26.8935 31.605 26.7438 31.4501 26.7438 31.274V28.2337H23.8807V31.274C23.8807 31.4501 23.731 31.605 23.5607 31.605C23.3906 31.605 23.2408 31.4501 23.2408 31.274V28.2337H19.9573L19.9491 28.3971C19.9081 29.0972 19.7174 30.5293 18.9216 32.2563V32.2606L18.7658 32.5639C17.6275 35.0018 15.4884 39.5399 15.431 44.0421V44.2288L15.6094 44.2161C16.7067 44.1419 18.9134 44.0951 21.3704 44.6192C25.6691 45.5358 28.7598 47.789 30.3103 51.1348L30.3164 51.1539L30.6959 52.5669ZM33.0565 52.219H30.9235V52.115L30.6446 51.0754L30.6159 50.9947C29.0203 47.5407 25.8455 45.2196 21.436 44.2798C19.2108 43.8066 17.1927 43.7854 15.8903 43.8511L15.7673 43.8575L15.7715 43.7303C15.9211 39.3957 17.9762 35.0506 19.0795 32.7167L19.2354 32.4134C19.9553 30.856 20.1993 29.5279 20.2773 28.6856L20.2875 28.5795H22.9209V31.274C22.9209 31.6411 23.2203 31.9508 23.5751 31.9508C23.9299 31.9508 24.2294 31.6411 24.2294 31.274V28.5816H26.4218V31.2761C26.4218 31.6432 26.7212 31.953 27.076 31.953C27.4308 31.953 27.7303 31.6432 27.7303 31.2761V28.5816H29.9411V31.2761C29.9411 31.6432 30.2406 31.953 30.5954 31.953C30.9502 31.953 31.2496 31.6432 31.2496 31.2761V28.5816H33.4605V31.2761C33.4605 31.6432 33.7599 31.953 34.1147 31.953C34.4695 31.953 34.769 31.6432 34.769 31.2761V28.5816H36.9799V31.2761C36.9799 31.6432 37.2793 31.953 37.6341 31.953C37.9889 31.953 38.2883 31.6432 38.2883 31.2761V28.5816H40.3495V31.2761C40.3495 31.6432 40.6489 31.953 41.0037 31.953C41.3585 31.953 41.6579 31.6432 41.6579 31.2761V28.5816H43.7273L43.7355 28.6899C43.7888 29.3497 43.996 30.7118 44.7897 32.4261L44.9353 32.7083L44.9989 32.844C46.0818 35.1736 48.0978 39.5082 48.227 43.7515L48.2311 43.8787L48.1081 43.8724C47.0457 43.8172 44.9127 43.8003 42.5603 44.301C38.1324 45.2387 34.9597 47.5599 33.3805 51.0139L33.0442 52.2211L33.0565 52.219ZM32.8883 51.9856L33.1857 50.9205C34.7936 47.3922 38.0238 45.0244 42.5275 44.0697C44.8143 43.5817 46.898 43.5817 48.0075 43.6305C47.8435 39.4784 45.8705 35.2351 44.8061 32.9459L44.7446 32.8143L44.599 32.53C43.8299 30.8687 43.6002 29.5258 43.5325 28.8171H41.8959V31.2761C41.8959 31.7705 41.4919 32.1884 41.014 32.1884C40.5361 32.1884 40.1321 31.7705 40.1321 31.2761V28.815H38.5221V31.274C38.5221 31.7683 38.1181 32.1863 37.6403 32.1863C37.1623 32.1863 36.7583 31.7683 36.7583 31.274V28.815H34.9987V31.274C34.9987 31.7683 34.5947 32.1863 34.1168 32.1863C33.6389 32.1863 33.2349 31.7683 33.2349 31.274V28.815H31.4752V31.274C31.4752 31.7683 31.0712 32.1863 30.5933 32.1863C30.1155 32.1863 29.7115 31.7683 29.7115 31.274V28.815H27.9518V31.274C27.9518 31.7683 27.5477 32.1863 27.0699 32.1863C26.592 32.1863 26.1879 31.7683 26.1879 31.274V28.815H24.4467V31.274C24.4467 31.7683 24.0427 32.1863 23.5649 32.1863C23.087 32.1863 22.683 31.7683 22.683 31.274V28.815H20.4803C20.3901 29.6785 20.1296 30.9897 19.4261 32.5173V32.5215L19.2682 32.8228C18.1853 35.1142 16.1734 39.3681 15.9909 43.6115C17.3075 43.552 19.2907 43.5881 21.4688 44.0506C25.9521 45.0054 29.1823 47.3731 30.8087 50.8993L30.8127 50.9099L30.8476 51.0096L31.1102 51.9856H32.8883Z" fill="#262626"/>
</svg>
