<svg width="30" height="30" viewBox="0 0 30 30" fill="none" xmlns="http://www.w3.org/2000/svg">
<path d="M25.0013 1.66699H5.0013C3.16035 1.66699 1.66797 3.15938 1.66797 5.00033V25.0003C1.66797 26.8413 3.16035 28.3337 5.0013 28.3337H25.0013C26.8423 28.3337 28.3346 26.8413 28.3346 25.0003V5.00033C28.3346 3.15938 26.8423 1.66699 25.0013 1.66699Z" stroke="currentColor" stroke-linecap="round" stroke-linejoin="round"/>
<path d="M8.33203 13.333V21.6663" stroke="#262626" stroke-linecap="round" stroke-linejoin="round"/>
<path d="M8.33203 8.33301V8.34863" stroke="#262626" stroke-linecap="round" stroke-linejoin="round"/>
<path d="M15 21.6663V13.333" stroke="#262626" stroke-linecap="round" stroke-linejoin="round"/>
<path d="M21.6667 21.6663V16.6663C21.6667 15.7823 21.3155 14.9344 20.6904 14.3093C20.0652 13.6842 19.2174 13.333 18.3333 13.333C17.4493 13.333 16.6014 13.6842 15.9763 14.3093C15.3512 14.9344 15 15.7823 15 16.6663" stroke="currentColor" stroke-linecap="round" stroke-linejoin="round"/>
</svg>
