<svg width="110" height="110" viewBox="0 0 110 110" fill="none" xmlns="http://www.w3.org/2000/svg">
<g clip-path="url(#clip0_2023_7972)">
<path d="M54.8128 0C24.5409 0 0 24.5758 0 54.8915C0 85.2073 24.5409 109.783 54.8128 109.783C85.0847 109.783 109.626 85.2073 109.626 54.8915C109.626 24.5758 85.0847 0 54.8128 0ZM73.7575 57.8012L46.3511 74.9548C45.7965 75.3016 45.166 75.4759 44.5354 75.4759C43.9641 75.4759 43.392 75.3335 42.8743 75.0453C41.7853 74.4407 41.1096 73.2931 41.1096 72.0452V37.7379C41.1096 36.49 41.7853 35.3424 42.8743 34.7378C43.9633 34.1297 45.2949 34.1666 46.3511 34.8283L73.7575 51.9819C74.7587 52.6101 75.3676 53.709 75.3676 54.8915C75.3676 56.0741 74.7587 57.1732 73.7575 57.8012Z" fill="white"/>
</g>
<defs>
<clipPath id="clip0_2023_7972">
<rect width="110" height="110" fill="white"/>
</clipPath>
</defs>
</svg>
